{
  "asset": {
    "generator": "glTF-Transform v4.0.8",
    "version": "2.0"
  },
  "accessors": [
    {
      "type": "SCALAR",
      "componentType": 5123,
      "count": 1128,
      "normalized": false,
      "byteOffset": 0,
      "bufferView": 0
    },
    {
      "type": "VEC3",
      "componentType": 5120,
      "count": 1062,
      "normalized": true,
      "byteOffset": 0,
      "bufferView": 1
    },
    {
      "type": "VEC3",
      "componentType": 5122,
      "count": 1062,
      "max": [
        32739,
        32767,
        23418
      ],
      "min": [
        -32739,
        -32767,
        -23418
      ],
      "normalized": true,
      "byteOffset": 0,
      "bufferView": 2
    }
  ],
  "bufferViews": [
    {
      "buffer": 1,
      "byteOffset": 0,
      "byteLength": 2256,
      "target": 34963,
      "extensions": {
        "EXT_meshopt_compression": {
          "buffer": 0,
          "byteOffset": 0,
          "byteLength": 399,
          "mode": "TRIANGLES",
          "byteStride": 2,
          "count": 1128
        }
      }
    },
    {
      "buffer": 1,
      "byteOffset": 2256,
      "byteLength": 4248,
      "target": 34962,
      "byteStride": 4,
      "extensions": {
        "EXT_meshopt_compression": {
          "buffer": 0,
          "byteOffset": 400,
          "byteLength": 913,
          "mode": "ATTRIBUTES",
          "filter": "OCTAHEDRAL",
          "byteStride": 4,
          "count": 1062
        }
      }
    },
    {
      "buffer": 1,
      "byteOffset": 6504,
      "byteLength": 8496,
      "target": 34962,
      "byteStride": 8,
      "extensions": {
        "EXT_meshopt_compression": {
          "buffer": 0,
          "byteOffset": 1316,
          "byteLength": 5445,
          "mode": "ATTRIBUTES",
          "byteStride": 8,
          "count": 1062
        }
      }
    }
  ],
  "buffers": [
    {
      "uri": "model.bin",
      "byteLength": 6764
    },
    {
      "byteLength": 15000,
      "extensions": {
        "EXT_meshopt_compression": {
          "fallback": true
        }
      }
    }
  ],
  "materials": [
    {
      "name": "Default",
      "extras": {
        "associations": {
          "materials": 0
        }
      },
      "pbrMetallicRoughness": {
        "baseColorFactor": [
          1,
          0.0343398068028541,
          0.0343398068028541,
          1
        ],
        "roughnessFactor": 0.45,
        "metallicFactor": 0.99
      },
      "emissiveFactor": [
        1,
        0.20507873637973145,
        0.12477181755144427
      ]
    }
  ],
  "meshes": [
    {
      "primitives": [
        {
          "attributes": {
            "NORMAL": 1,
            "POSITION": 2
          },
          "mode": 4,
          "material": 0,
          "indices": 0
        }
      ]
    }
  ],
  "cameras": [
    {
      "name": "PerspectiveCamera",
      "type": "perspective",
      "perspective": {
        "znear": 0.10000000149011612,
        "zfar": 1000,
        "yfov": 0.39959652046304894,
        "aspectRatio": 1.7777777777777777
      }
    }
  ],
  "nodes": [
    {
      "name": "Box009",
      "extras": {
        "name": "Box009",
        "associations": {
          "meshes": 0,
          "primitives": 0,
          "nodes": 0
        },
        "variantData": {}
      },
      "translation": [
        -0.000002764656064280358,
        0.0046822887424059585,
        0.00001568703647568475
      ],
      "rotation": [
        -0.7071068286895766,
        0,
        0,
        0.7071067336835153
      ],
      "scale": [
        0.007112498420556179,
        0.007112498177105741,
        0.007112498177105741
      ],
      "mesh": 0
    },
    {
      "name": "Caméra",
      "extras": {
        "name": "Caméra",
        "associations": {
          "nodes": 9
        }
      },
      "translation": [
        0,
        0.07493671774864197,
        0.1026163101196289
      ],
      "rotation": [
        -0.29694148927284925,
        0.007691917484639113,
        0.0023920207773545374,
        0.9548616991954555
      ],
      "camera": 0
    }
  ],
  "scenes": [
    {
      "name": "AuxScene",
      "nodes": [
        0,
        1
      ]
    }
  ],
  "scene": 0,
  "extensionsUsed": [
    "EXT_meshopt_compression",
    "KHR_mesh_quantization"
  ],
  "extensionsRequired": [
    "EXT_meshopt_compression",
    "KHR_mesh_quantization"
  ]
}