{
  "asset": {
    "generator": "glTF-Transform v4.0.8",
    "version": "2.0"
  },
  "accessors": [
    {
      "type": "SCALAR",
      "componentType": 5123,
      "count": 1128,
      "bufferView": 0,
      "byteOffset": 0
    },
    {
      "type": "VEC3",
      "componentType": 5126,
      "count": 1062,
      "max": [
        706.7385864257812,
        706.7492065429688,
        971.5443725585938
      ],
      "min": [
        -707.2886962890625,
        -708.4921264648438,
        -39.864898681640625
      ],
      "bufferView": 1,
      "byteOffset": 0
    },
    {
      "type": "VEC3",
      "componentType": 5126,
      "count": 1062,
      "bufferView": 1,
      "byteOffset": 12
    }
  ],
  "bufferViews": [
    {
      "buffer": 0,
      "byteOffset": 0,
      "byteLength": 2256,
      "target": 34963
    },
    {
      "buffer": 0,
      "byteOffset": 2256,
      "byteLength": 25488,
      "byteStride": 24,
      "target": 34962
    }
  ],
  "buffers": [
    {
      "uri": "output.bin",
      "byteLength": 27744
    }
  ],
  "materials": [
    {
      "name": "Default",
      "extras": {
        "associations": {
          "materials": 0
        }
      },
      "pbrMetallicRoughness": {
        "baseColorFactor": [
          1,
          0.0343398068028541,
          0.0343398068028541,
          1
        ],
        "roughnessFactor": 0.45,
        "metallicFactor": 0.99
      },
      "emissiveFactor": [
        1,
        0.20507873637973145,
        0.12477181755144427
      ]
    }
  ],
  "meshes": [
    {
      "primitives": [
        {
          "attributes": {
            "POSITION": 1,
            "NORMAL": 2
          },
          "mode": 4,
          "material": 0,
          "indices": 0
        }
      ]
    }
  ],
  "cameras": [
    {
      "name": "PerspectiveCamera",
      "type": "perspective",
      "perspective": {
        "znear": 0.10000000149011612,
        "zfar": 1000,
        "yfov": 0.39959652046304894,
        "aspectRatio": 1.7777777777777777
      }
    }
  ],
  "nodes": [
    {
      "name": "Box009",
      "extras": {
        "name": "Box009",
        "associations": {
          "meshes": 0,
          "primitives": 0,
          "nodes": 0
        },
        "variantData": {}
      },
      "rotation": [
        -0.7071068286895766,
        0,
        0,
        0.7071067336835153
      ],
      "scale": [
        0.000010051287020341592,
        0.00001005128667630071,
        0.00001005128667630071
      ],
      "mesh": 0
    },
    {
      "name": "Caméra",
      "extras": {
        "name": "Caméra",
        "associations": {
          "nodes": 9
        }
      },
      "translation": [
        0,
        0.07493671774864197,
        0.1026163101196289
      ],
      "rotation": [
        -0.29694148927284925,
        0.007691917484639113,
        0.0023920207773545374,
        0.9548616991954555
      ],
      "camera": 0
    }
  ],
  "scenes": [
    {
      "name": "AuxScene",
      "nodes": [
        0,
        1
      ]
    }
  ],
  "scene": 0
}