{
	"asset":{
		"generator":"Khronos glTF Blender I/O v4.3.47",
		"version":"2.0"
	},
	"scene":0,
	"scenes":[
		{
			"name":"Scene",
			"nodes":[
				0
			]
		}
	],
	"nodes":[
		{
			"mesh":0,
			"name":"Cylinder",
			"rotation":[
				0.7071068286895752,
				0,
				0,
				0.7071068286895752
			]
		}
	],
	"materials":[
		{
			"doubleSided":true,
			"name":"Material.001",
			"pbrMetallicRoughness":{
				"baseColorTexture":{
					"index":0
				},
				"metallicFactor":0.8090909123420715,
				"metallicRoughnessTexture":{
					"index":1
				}
			}
		}
	],
	"meshes":[
		{
			"name":"Cylinder",
			"primitives":[
				{
					"attributes":{
						"POSITION":0,
						"NORMAL":1,
						"TEXCOORD_0":2
					},
					"indices":3,
					"material":0
				}
			]
		}
	],
	"textures":[
		{
			"sampler":0,
			"source":0
		},
		{
			"sampler":0,
			"source":1
		}
	],
	"images":[
		{
			"mimeType":"image/png",
			"name":"diffuse",
			"uri":"diffuse.png"
		},
		{
			"mimeType":"image/png",
			"name":"roughness",
			"uri":"roughness.png"
		}
	],
	"accessors":[
		{
			"bufferView":0,
			"componentType":5126,
			"count":3475,
			"max":[
				1,
				0.4650000035762787,
				1
			],
			"min":[
				-1,
				-0.4650000035762787,
				-1
			],
			"type":"VEC3"
		},
		{
			"bufferView":1,
			"componentType":5126,
			"count":3475,
			"type":"VEC3"
		},
		{
			"bufferView":2,
			"componentType":5126,
			"count":3475,
			"type":"VEC2"
		},
		{
			"bufferView":3,
			"componentType":5123,
			"count":16116,
			"type":"SCALAR"
		}
	],
	"bufferViews":[
		{
			"buffer":0,
			"byteLength":41700,
			"byteOffset":0,
			"target":34962
		},
		{
			"buffer":0,
			"byteLength":41700,
			"byteOffset":41700,
			"target":34962
		},
		{
			"buffer":0,
			"byteLength":27800,
			"byteOffset":83400,
			"target":34962
		},
		{
			"buffer":0,
			"byteLength":32232,
			"byteOffset":111200,
			"target":34963
		}
	],
	"samplers":[
		{
			"magFilter":9729,
			"minFilter":9987
		}
	],
	"buffers":[
		{
			"byteLength":143432,
			"uri":"ennemi1.bin"
		}
	]
}
