{"asset":{"generator":"glTF-Transform v4.0.2","version":"2.0"},"accessors":[{"type":"VEC3","componentType":5126,"count":288,"max":[-15.112099647521973,14.717100143432617,919.9923095703125],"min":[-707.2886962890625,-677.4595947265625,-39.864898681640625],"bufferView":0,"byteOffset":0},{"type":"VEC3","componentType":5126,"count":288,"bufferView":0,"byteOffset":12},{"type":"SCALAR","componentType":5123,"count":288,"bufferView":1,"byteOffset":0},{"type":"SCALAR","componentType":5123,"count":180,"bufferView":1,"byteOffset":576},{"type":"SCALAR","componentType":5123,"count":84,"bufferView":1,"byteOffset":936},{"type":"VEC3","componentType":5126,"count":288,"max":[676.919921875,706.7492065429688,971.5443725585938],"min":[-679.8358154296875,-189.61459350585938,951.5441284179688],"bufferView":2,"byteOffset":0},{"type":"VEC3","componentType":5126,"count":288,"bufferView":2,"byteOffset":12},{"type":"VEC3","componentType":5126,"count":288,"max":[706.7385864257812,14.987500190734863,919.9923095703125],"min":[14.562000274658203,-677.1890869140625,-39.864898681640625],"bufferView":3,"byteOffset":0},{"type":"VEC3","componentType":5126,"count":288,"bufferView":3,"byteOffset":12},{"type":"VEC3","componentType":5126,"count":180,"max":[307.8844909667969,-388.2195129394531,930.6815185546875],"min":[-304.01141357421875,-708.4921264648438,399.7810974121094],"bufferView":4,"byteOffset":0},{"type":"VEC3","componentType":5126,"count":180,"bufferView":4,"byteOffset":12},{"type":"VEC3","componentType":5126,"count":84,"max":[295.7486877441406,-325.6686096191406,971.4984130859375],"min":[-295.6046142578125,-654.0662841796875,951.4984130859375],"bufferView":5,"byteOffset":0},{"type":"VEC3","componentType":5126,"count":84,"bufferView":5,"byteOffset":12}],"bufferViews":[{"buffer":0,"byteOffset":0,"byteLength":6912,"byteStride":24,"target":34962},{"buffer":0,"byteOffset":6912,"byteLength":1104,"target":34963},{"buffer":0,"byteOffset":8016,"byteLength":6912,"byteStride":24,"target":34962},{"buffer":0,"byteOffset":14928,"byteLength":6912,"byteStride":24,"target":34962},{"buffer":0,"byteOffset":21840,"byteLength":4320,"byteStride":24,"target":34962},{"buffer":0,"byteOffset":26160,"byteLength":2016,"byteStride":24,"target":34962}],"buffers":[{"uri":"md-blend6-mdlvw.bin","byteLength":28176}],"materials":[{"name":"Default","extras":{"associations":{"materials":0}},"pbrMetallicRoughness":{"baseColorFactor":[1,0.0343398068028541,0.0343398068028541,1],"roughnessFactor":0.45,"metallicFactor":0.99},"emissiveFactor":[1,0.20507873637973145,0.12477181755144427]}],"meshes":[{"primitives":[{"attributes":{"POSITION":0,"NORMAL":1},"mode":4,"material":0,"indices":2}]},{"primitives":[{"attributes":{"POSITION":5,"NORMAL":6},"mode":4,"material":0,"indices":2}]},{"primitives":[{"attributes":{"POSITION":7,"NORMAL":8},"mode":4,"material":0,"indices":2}]},{"primitives":[{"attributes":{"POSITION":9,"NORMAL":10},"mode":4,"material":0,"indices":3}]},{"primitives":[{"attributes":{"POSITION":11,"NORMAL":12},"mode":4,"material":0,"indices":4}]}],"cameras":[{"name":"PerspectiveCamera","type":"perspective","perspective":{"znear":0.10000000149011612,"zfar":1000,"yfov":0.39959652046304894,"aspectRatio":1.7777777777777777}}],"nodes":[{"name":"Box009","extras":{"name":"Box009","associations":{"meshes":0,"primitives":0,"nodes":0},"variantData":{}},"translation":[0,-264.8992614746094,-0.00003559155811672099],"scale":[0.001005128724500537,0.001005128724500537,0.001005128724500537],"mesh":0},{"name":"Box050","extras":{"name":"Box050","associations":{"meshes":1,"primitives":0,"nodes":1},"variantData":{}},"translation":[0,-264.8992614746094,-0.00003559155811672099],"scale":[0.001005128724500537,0.001005128724500537,0.001005128724500537],"mesh":1},{"name":"Box051","extras":{"name":"Box051","associations":{"meshes":2,"primitives":0,"nodes":2},"variantData":{}},"translation":[0,-264.8992614746094,-0.00003559155811672099],"scale":[0.001005128724500537,0.001005128724500537,0.001005128724500537],"mesh":2},{"name":"Box052","extras":{"name":"Box052","associations":{"meshes":3,"primitives":0,"nodes":3},"variantData":{}},"translation":[0,-264.8992614746094,-0.00003559155811672099],"scale":[0.001005128724500537,0.001005128724500537,0.001005128724500537],"mesh":3},{"name":"Box054","extras":{"name":"Box054","associations":{"meshes":4,"primitives":0,"nodes":4},"variantData":{}},"translation":[0,-264.8992614746094,-0.00003559155811672099],"scale":[0.001005128724500537,0.001005128724500537,0.001005128724500537],"mesh":4},{"name":"md","extras":{"name":"md","associations":{"nodes":5}},"translation":[0,0,-264.8985595703125],"rotation":[-0.7071068286895766,0,0,0.7071067336835153],"children":[0,1,2,3,4]},{"name":"Scene_1","extras":{"name":"Scene_1","associations":{"nodes":6}},"children":[5]},{"name":"9fd527dd-82c1-4af6-9a2f-dde631003708","extras":{"name":"9fd527dd-82c1-4af6-9a2f-dde631003708","associations":{"nodes":7}},"scale":[0.009999999776482582,0.009999999776482582,0.009999999776482582],"children":[6]},{"name":"b4146e5b-624b-4a1a-9f76-4a6e94e2f73e","extras":{"name":"b4146e5b-624b-4a1a-9f76-4a6e94e2f73e","associations":{"nodes":8}},"children":[7]},{"name":"Caméra","extras":{"name":"Caméra","associations":{"nodes":9}},"translation":[0,0.07493671774864197,0.1026163101196289],"rotation":[-0.29694148927284925,0.007691917484639113,0.0023920207773545374,0.9548616991954555],"camera":0},{"name":"Scene","extras":{"name":"Scene","associations":{"nodes":10}},"children":[8,9]},{"name":"AuxScene_1","extras":{"name":"AuxScene","associations":{"nodes":11}},"children":[10]},{"name":"AuxScene","children":[11]}],"scenes":[{"name":"AuxScene","nodes":[12]}],"scene":0}