{
	"asset":{
		"generator":"Khronos glTF Blender I/O v4.3.47",
		"version":"2.0"
	},
	"scene":0,
	"scenes":[
		{
			"name":"Scene",
			"nodes":[
				0
			]
		}
	],
	"nodes":[
		{
			"mesh":0,
			"name":"Cylinder"
		}
	],
	"materials":[
		{
			"doubleSided":true,
			"name":"Material.001",
			"pbrMetallicRoughness":{
				"baseColorTexture":{
					"index":0
				},
				"metallicFactor":0.8545454740524292,
				"metallicRoughnessTexture":{
					"index":1
				}
			}
		}
	],
	"meshes":[
		{
			"name":"Cylinder",
			"primitives":[
				{
					"attributes":{
						"POSITION":0,
						"NORMAL":1,
						"TEXCOORD_0":2
					},
					"indices":3,
					"material":0
				}
			]
		}
	],
	"textures":[
		{
			"sampler":0,
			"source":0
		},
		{
			"sampler":0,
			"source":1
		}
	],
	"images":[
		{
			"mimeType":"image/png",
			"name":"ennemi1-diffuse",
			"uri":"ennemi1-diffuse.png"
		},
		{
			"mimeType":"image/png",
			"name":"ennemi1-roughness",
			"uri":"ennemi1-roughness.png"
		}
	],
	"accessors":[
		{
			"bufferView":0,
			"componentType":5126,
			"count":3803,
			"max":[
				1,
				1,
				0.46500012278556824
			],
			"min":[
				-1,
				-1,
				-0.46500012278556824
			],
			"type":"VEC3"
		},
		{
			"bufferView":1,
			"componentType":5126,
			"count":3803,
			"type":"VEC3"
		},
		{
			"bufferView":2,
			"componentType":5126,
			"count":3803,
			"type":"VEC2"
		},
		{
			"bufferView":3,
			"componentType":5123,
			"count":15348,
			"type":"SCALAR"
		}
	],
	"bufferViews":[
		{
			"buffer":0,
			"byteLength":45636,
			"byteOffset":0,
			"target":34962
		},
		{
			"buffer":0,
			"byteLength":45636,
			"byteOffset":45636,
			"target":34962
		},
		{
			"buffer":0,
			"byteLength":30424,
			"byteOffset":91272,
			"target":34962
		},
		{
			"buffer":0,
			"byteLength":30696,
			"byteOffset":121696,
			"target":34963
		}
	],
	"samplers":[
		{
			"magFilter":9729,
			"minFilter":9987
		}
	],
	"buffers":[
		{
			"byteLength":152392,
			"uri":"ennemi1.bin"
		}
	]
}
