{
	"asset":{
		"generator":"Khronos glTF Blender I/O v4.3.47",
		"version":"2.0"
	},
	"scene":0,
	"scenes":[
		{
			"name":"Scene",
			"nodes":[
				0
			]
		}
	],
	"nodes":[
		{
			"mesh":0,
			"name":"Text.002"
		}
	],
	"materials":[
		{
			"doubleSided":true,
			"name":"Material.001",
			"pbrMetallicRoughness":{
				"baseColorFactor":[
					0.800000011920929,
					0.800000011920929,
					0.800000011920929,
					1
				],
				"roughnessFactor":0
			}
		}
	],
	"meshes":[
		{
			"name":"Mesh",
			"primitives":[
				{
					"attributes":{
						"POSITION":0,
						"NORMAL":1
					},
					"indices":2,
					"material":0
				}
			]
		}
	],
	"accessors":[
		{
			"bufferView":0,
			"componentType":5126,
			"count":19676,
			"max":[
				0.18328067660331726,
				0.07945641130208969,
				0.1699981540441513
			],
			"min":[
				-0.1690806895494461,
				0.030555622652173042,
				-0.23248817026615143
			],
			"type":"VEC3"
		},
		{
			"bufferView":1,
			"componentType":5126,
			"count":19676,
			"type":"VEC3"
		},
		{
			"bufferView":2,
			"componentType":5123,
			"count":117504,
			"type":"SCALAR"
		}
	],
	"bufferViews":[
		{
			"buffer":0,
			"byteLength":236112,
			"byteOffset":0,
			"target":34962
		},
		{
			"buffer":0,
			"byteLength":236112,
			"byteOffset":236112,
			"target":34962
		},
		{
			"buffer":0,
			"byteLength":235008,
			"byteOffset":472224,
			"target":34963
		}
	],
	"buffers":[
		{
			"byteLength":707232,
			"uri":"gamefont-a.bin"
		}
	]
}
