{
	"asset":{
		"generator":"Khronos glTF Blender I/O v4.3.47",
		"version":"2.0"
	},
	"scene":0,
	"scenes":[
		{
			"name":"Scene",
			"nodes":[
				0
			]
		}
	],
	"nodes":[
		{
			"mesh":0,
			"name":"Cube.001",
			"translation":[
				1.9882783889770508,
				-0.022702138870954514,
				0.017452118918299675
			]
		}
	],
	"materials":[
		{
			"doubleSided":true,
			"name":"rock",
			"normalTexture":{
				"index":0,
				"scale":1.1999999284744263
			},
			"pbrMetallicRoughness":{
				"baseColorTexture":{
					"index":1
				},
				"metallicFactor":0,
				"roughnessFactor":0.9000000357627869
			}
		}
	],
	"meshes":[
		{
			"name":"Cube.002",
			"primitives":[
				{
					"attributes":{
						"POSITION":0,
						"NORMAL":1,
						"TEXCOORD_0":2,
						"COLOR_0":3,
						"COLOR_1":4
					},
					"indices":5,
					"material":0
				}
			]
		}
	],
	"textures":[
		{
			"sampler":0,
			"source":0
		},
		{
			"sampler":0,
			"source":1
		}
	],
	"images":[
		{
			"mimeType":"image/png",
			"name":"rock-normal",
			"uri":"rock-normal.png"
		},
		{
			"mimeType":"image/jpeg",
			"name":"rock-diffuse",
			"uri":"rock-diffuse.jpg"
		}
	],
	"accessors":[
		{
			"bufferView":0,
			"componentType":5126,
			"count":6369,
			"max":[
				1.9256386756896973,
				1.0796301364898682,
				0.7332531809806824
			],
			"min":[
				-2.1267013549804688,
				-1.0803699493408203,
				-0.6016331911087036
			],
			"type":"VEC3"
		},
		{
			"bufferView":1,
			"componentType":5126,
			"count":6369,
			"type":"VEC3"
		},
		{
			"bufferView":2,
			"componentType":5126,
			"count":6369,
			"type":"VEC2"
		},
		{
			"bufferView":3,
			"componentType":5121,
			"count":6369,
			"normalized":true,
			"type":"VEC4"
		},
		{
			"bufferView":4,
			"componentType":5123,
			"count":6369,
			"normalized":true,
			"type":"VEC4"
		},
		{
			"bufferView":5,
			"componentType":5123,
			"count":36864,
			"type":"SCALAR"
		}
	],
	"bufferViews":[
		{
			"buffer":0,
			"byteLength":76428,
			"byteOffset":0,
			"target":34962
		},
		{
			"buffer":0,
			"byteLength":76428,
			"byteOffset":76428,
			"target":34962
		},
		{
			"buffer":0,
			"byteLength":50952,
			"byteOffset":152856,
			"target":34962
		},
		{
			"buffer":0,
			"byteLength":25476,
			"byteOffset":203808,
			"target":34962
		},
		{
			"buffer":0,
			"byteLength":50952,
			"byteOffset":229284,
			"target":34962
		},
		{
			"buffer":0,
			"byteLength":73728,
			"byteOffset":280236,
			"target":34963
		}
	],
	"samplers":[
		{
			"magFilter":9729,
			"minFilter":9987
		}
	],
	"buffers":[
		{
			"byteLength":353964,
			"uri":"rock-right.bin"
		}
	]
}
